<svg xmlns="http://www.w3.org/2000/svg" xmlns:xlink="http://www.w3.org/1999/xlink" viewBox="0 0 734.59 726.98"><defs><clipPath id="a" transform="translate(-78.44 -45.97)"><circle cx="451.04" cy="412.96" r="363.49" style="fill:none"/></clipPath></defs><title>Logo</title><circle cx="371.1" cy="363.49" r="363.49" style="fill:#22343e"/><path d="M451,753.77a340.81,340.81,0,0,1-241-581.8A340.81,340.81,0,0,1,692,654,338.59,338.59,0,0,1,451,753.77Z" transform="translate(-78.44 -45.97)" style="fill:none;stroke:#a9a9a9;stroke-miterlimit:10;stroke-width:2px;opacity:0.5"/><text transform="matrix(0.61, -0.79, 0.79, 0.61, 158.33, 234.25)" style="font-size:75px;fill:#ca9e67;font-family:OpenSans-SemiBold, Open Sans;font-weight:600">C</text><text transform="matrix(0.78, -0.63, 0.63, 0.78, 190.44, 192.76)" style="font-size:75px;fill:#ca9e67;font-family:OpenSans-SemiBold, Open Sans;font-weight:600">Ô</text><text transform="translate(242.05 153.17) rotate(-25.9)" style="font-size:75px;fill:#ca9e67;font-family:OpenSans-SemiBold, Open Sans;font-weight:600">T</text><text transform="matrix(0.97, -0.25, 0.25, 0.97, 287.33, 132.05)" style="font-size:75px;fill:#ca9e67;font-family:OpenSans-SemiBold, Open Sans;font-weight:600">E</text><text transform="translate(337.13 120.94) rotate(-5.24)" style="font-size:75px;fill:#ca9e67;font-family:OpenSans-SemiBold, Open Sans;font-weight:600"> </text><text transform="translate(338.08 120.81) rotate(-5.02)" style="font-size:75px;fill:#ca9e67;font-family:OpenSans-SemiBold, Open Sans;font-weight:600"> </text><text transform="translate(354.41 119.28) rotate(-1.3)" style="font-size:75px;fill:#ca9e67;font-family:OpenSans-SemiBold, Open Sans;font-weight:600"> </text><text transform="matrix(0.99, 0.14, -0.14, 0.99, 383.21, 118.44)" style="font-size:75px;fill:#ca9e67;font-family:OpenSans-SemiBold, Open Sans;font-weight:600">T</text><text transform="matrix(0.93, 0.36, -0.36, 0.93, 432.48, 125.26)" style="font-size:75px;fill:#ca9e67;font-family:OpenSans-SemiBold, Open Sans;font-weight:600">H</text><text transform="translate(490.64 149.12) rotate(33.7)" style="font-size:75px;fill:#ca9e67;font-family:OpenSans-SemiBold, Open Sans;font-weight:600">E</text><text transform="matrix(0.73, 0.68, -0.68, 0.73, 532.18, 178.78)" style="font-size:75px;fill:#ca9e67;font-family:OpenSans-SemiBold, Open Sans;font-weight:600"> </text><text transform="matrix(0.65, 0.76, -0.76, 0.65, 553.25, 199.08)" style="font-size:75px;fill:#ca9e67;font-family:OpenSans-SemiBold, Open Sans;font-weight:600"> </text><text transform="matrix(0.56, 0.83, -0.83, 0.56, 564.19, 210.71)" style="font-size:75px;fill:#ca9e67;font-family:OpenSans-SemiBold, Open Sans;font-weight:600">S</text><text transform="translate(591.07 250.82) rotate(67.29)" style="font-size:75px;fill:#ca9e67;font-family:OpenSans-SemiBold, Open Sans;font-weight:600">P</text><text transform="matrix(0.16, 0.99, -0.99, 0.16, 611.52, 299.87)" style="font-size:75px;fill:#ca9e67;font-family:OpenSans-SemiBold, Open Sans;font-weight:600">O</text><text transform="translate(620.91 364.79) rotate(95.88)" style="font-size:75px;fill:#ca9e67;font-family:OpenSans-SemiBold, Open Sans;font-weight:600">O</text><text transform="translate(613.37 429.74) rotate(110.89)" style="font-size:75px;fill:#ca9e67;font-family:OpenSans-SemiBold, Open Sans;font-weight:600">N</text><g style="clip-path:url(#a)"><path d="M82.51,614.79l154.25-82.51s39-21.82,49.07-29.36,20.84-17.06,34-29.78c9.46-9.17,30.34-62.57,42.36-81.38,13.64-21.33,28-38.19,58.72-55.78,30.89-17.69,49.8-20.61,68.37-23.07,11.68-1.55,26.4-1.77,37.34,2.93,8.8,3.8,17.5,7.76,26.42,18.46,6.22,7.46,10.91,16.35,10.49,32.72-.26,10.07-5,25.57-18.88,48.65-10.59,17.66-10.22,18.65-34.81,43.21-19.21,19.18-34.38,25.58-51.18,31.87s-41.93,8.39-57.46,8c-15.2-.41-44.85-2.26-75.91,8.24-21.2,7.16-28.65,13.19-39.46,20.15-14.09,9.07-82.7,60.87-89,66.74s-118,94.45-118,94.45l-.42-71.36Z" transform="translate(-78.44 -45.97)" style="fill:#a9a9a9"/><path d="M342.94,455.34c6.67-10,6.53-13.53,7-15.45,1.77-7.81,3.9-16.82,7.74-23.51,5.63-9.82,11.37-19.63,17.36-19.33s9.67.64,9.67.64l-9.27,6.74s-6,7.72-9.57,12.57-6.62,12.12-8.92,20.16a67.06,67.06,0,0,1-8.85,19.08c-3.31,4.76-13.52,13.35-13.26,12C335.14,466.44,340.83,458.51,342.94,455.34Z" transform="translate(-78.44 -45.97)" style="fill:#dbdbdb"/><path d="M372.36,373.58c-5.8,9.09-6.89,16.37-4.59,24.7,6.47,23.46,14.49,37.51,16.94,41.93,5.74,10.34,18,27.71,23,35.61s10.2,17.37,21,22.24c4,1.81,5.71,2,10.36,5.57,6.85,5.21,3.67,16.24,2.66,21.69-2.28,12.31,12.11,21.07,17.81,7.76,3.42-8-4.85-13.89-1.09-29.87,1.71-7.28,24-16.12,29.9-21.69,2.52-2.4,9.94-7.49,13.15-10,10.34-8.23,22-20,34.41-35.5,5.42-6.78,17.64-25.64,26.28-42.64,3.92-7.72,12.16-25.51,6.94-44.13-4.13-14.74-15.17-29.53-33.1-37.94-12.93-6.07-41-7.52-64.08-2.22-32.09,7.37-53.33,20.8-69.74,33.81C387,354.92,377.61,365.38,372.36,373.58Z" transform="translate(-78.44 -45.97)" style="fill:#f6f2b1"/><path d="M426.35,489.49c.82.5,8.35,3.23,13,3.22,11.19,0,17.49-2.07,20.86-2.33,3.58-.28,11.74-5.82,13.24-7.06,4.64-3.81-1.14-.55-2.58-.25-2.26.48-6.8,3.55-10.36,4.59a51.07,51.07,0,0,1-12.6,2.15,87.92,87.92,0,0,1-12.94-.12C429.51,489.09,425.41,488.91,426.35,489.49Z" transform="translate(-78.44 -45.97)" style="fill:#ede695"/><path d="M387,391c-2.76-1.7,1.78-10.09,6.24-17.22,3-4.82,18.28-18.66,26.51-25.32,18.71-15.15,51.72-25.08,59.65-27.42,7.75-2.28,23.61-3,29.76-1.57,3.36.77,11.08,8.38-8.22,7.2-1.94-.12-18.37.76-32.28,6.73-9.88,4.24-33.91,13.79-46.08,23.58-8.33,6.71-15.67,12.34-24.92,24.67C391.88,389.32,389.8,392.69,387,391Z" transform="translate(-78.44 -45.97)" style="fill:#fff"/></g></svg>