<svg xmlns="http://www.w3.org/2000/svg" viewBox="0 0 401.34 291.78"><title>01ambassadeurs</title><path d="M116,110.85s-17.31-8.34-22.44,0-14.74,18.59-21.8,18.59-28.2,9-32.69,14.74-18.59,13.47-18.59,27.57,1.28,32.7,10.25,38.47S41,247.4,48.67,250s12.18.64,14.1,3.84S67.9,283.3,81.36,283.3s28.85,10.26,34.62,13.47,10.9,4.48,22.44,4.48,32.06-1.92,46.8,0,10.26,3.21,26.29,9.62,21.15,21.8,36.54,11.54,18.59-19.23,16-30.77-9.72-21.8-23.78-35.26S157,126.87,148.68,126.87,116,110.85,116,110.85Z" transform="translate(-20.46 -37.41)" style="fill:#e8e3af"/><path d="M223.65,83s-.57-42.78,16.65-44,39.57-5.35,72.07,7.13S358,71.12,381.72,83s31.06,11.68,32.47,25.15,18.26,32.27-3.25,42.76-34.24,31.64-36.18,42.68,24,28.85,19.27,38.26-19.85,27.84-22.92,29.23-5.6,23.42-16,32.88,3.27,32.05-19.7,17.23-23.43-32.55-23-37.66S223.65,83,223.65,83Z" transform="translate(-20.46 -37.41)" style="fill:#e8e2c3"/><path d="M88.39,53.05l12.38,12.62s-9.43,18.27-9.43,21.22-3.54,12.38-3,14.74-5.9,6.49-5.9,9.43-15.33,29.48-15.33,29.48S63,153.22,63,155.43s-1.18,1.11-2.95,10.21S56,183.78,56,185.74s-3.53,10.89-4.13,14.65a51,51,0,0,0,0,6.77c.14,5.16,0,20.64,0,20.64s-17.65,8.67-18.07,3.45a66.57,66.57,0,0,1,1-14.75v-9.34c0-2.95,2.36-15.33,2.36-15.33S43,175.33,43,173V161.06l7.08-19.93s11.79-14.74,11.79-16.51S70.7,97.5,70.7,97.5L74.24,81l8.84-17.69Z" transform="translate(-20.46 -37.41)" style="fill:#1e5125"/><path d="M32.43,241.36c-1,1.76.37,4.74.37,8s8.25,20.08,8.25,20.08,8.26-19.39,8.26-21.32-2.18-6.74-4.26-7.56-6.06-2.2-7.3-1.79S33.15,240.07,32.43,241.36Z" transform="translate(-20.46 -37.41)" style="fill:#45773c"/><path d="M35.51,220.66s-3.08,5-3.08,9-.56,10.07,0,11.75L33,243l5.88-9.79V222.33Z" transform="translate(-20.46 -37.41)" style="fill:#30542e"/><path d="M42.43,227.12l.53,8.39s3.37,9.9,3.37,10.45,2.3,3.58,2.3,3.58,3-16,3-18.29.24-7.29-1.56-7.22-4.46-1.45-5.53,0S42.43,227.12,42.43,227.12Z" transform="translate(-20.46 -37.41)" style="fill:#294922"/><path d="M40.64,215.7s3-3.16,4.4-3.16,4.68,1,5.23,1.58-.41,6.67-1.24,10-2.89,8.53-2.89,8.94a13.54,13.54,0,0,1-1.24,2.48l-4.26-9.9-1-7.29Z" transform="translate(-20.46 -37.41)" style="fill:#3e7539"/><path d="M41.19,230.15s-1.1-2.07-3.3.55-2.47,6.33-2.82,8.87.89,7.49,1.31,9a38.28,38.28,0,0,0,2.49,5.22s3.15-7.56,3.28-9.07,2.9-7.43,2.9-7.43-.15-5.3-1-5.45A12.74,12.74,0,0,1,41.19,230.15Z" transform="translate(-20.46 -37.41)" style="fill:#337333"/><path d="M65.51,99.38l16.78,7.26s-.77,21.61.49,24.48,2.09,13.48,3.65,15.54-2.62,8.7-1.35,11.57-1.36,34.9-1.36,34.9,1.68,14,2.63,16.16-.6,1.56,1.69,11.13,4,19.33,4.87,21.24,1.46,12,2.53,15.92a54.31,54.31,0,0,0,2.91,6.59c2.35,5,8.89,20.08,8.89,20.08s-12.46,15.6-15.09,10.69a75.17,75.17,0,0,1-5.45-14.75l-4-9.08c-1.27-2.87-4.44-15.88-4.44-15.88s-1.7-18.45-2.72-20.74L70.39,222.9,68.3,200.64s4.46-19.13,3.7-20.85-3.57-30-3.57-30l-3.86-17.5.49-20.8Z" transform="translate(-20.46 -37.41)" style="fill:#30642b"/><path d="M95.29,305.32c-.14,2.11,2.38,4.46,3.8,7.67s16.21,16.19,16.21,16.19-.78-22.21-1.61-24.09-4.9-5.67-7.16-5.63-6.5.32-7.46,1.22S95.39,303.77,95.29,305.32Z" transform="translate(-20.46 -37.41)" style="fill:#45773c"/><path d="M89.19,283.92s-.65,6.15,1,10,3.82,10,5.06,11.44l1.23,1.41,1.17-11.92L93,284.2Z" transform="translate(-20.46 -37.41)" style="fill:#30542e"/><path d="M98.32,287.41l4.1,7.94s7.35,8.27,7.59,8.81,3.65,2.55,3.65,2.55-4.11-16.75-5.11-19-2.92-7.19-4.55-6.39-4.71.41-5.06,2.24S98.32,287.41,98.32,287.41Z" transform="translate(-20.46 -37.41)" style="fill:#294922"/><path d="M91.77,277s1.41-4.3,2.67-4.86,4.7-1,5.47-.58,2.5,6.66,3.16,10.2,1,9.47,1.2,9.87a14.86,14.86,0,0,1-.07,2.92L96,286.66,92,280Z" transform="translate(-20.46 -37.41)" style="fill:#3e7539"/><path d="M98.49,290.85s-1.9-1.56-2.79,1.88.46,7.16,1.24,9.77,4,6.94,5.07,8.24a43,43,0,0,0,4.53,4.08s-.36-8.64-.89-10.17-.54-8.4-.54-8.4-2.42-5.1-3.24-4.91A12.88,12.88,0,0,1,98.49,290.85Z" transform="translate(-20.46 -37.41)" style="fill:#337333"/><path d="M109.74,253.8s1.07-6.22,2.48-6.93,4.5-4.89,13.78-5.28,25.25,27.89,25.25,27.89.71,3.38-6.39,4-13.81,3.8-14.36,5.42-6.57,1.62-6.57,1.62Z" transform="translate(-20.46 -37.41)" style="fill:#f6f2b1"/><path d="M162.76,299l-15.38,5S114.81,257.78,113,255.43s-3.12-12.32-5-13.84-10.25-10.87-12-13.22-5.52-32.77-5.52-32.77-4.34-12.6-5.67-14.37.27-1.59-3.8-9.92-7.63-17-8.82-18.53S68.45,142,66.67,138.6a51.77,51.77,0,0,0-4.08-5.41c-3.22-4-12.43-16.47-12.43-16.47S59,99.16,62.5,103.08a66.81,66.81,0,0,1,8.11,12.36l5.62,7.46c1.78,2.35,7.35,13.65,7.35,13.65s5.24,16.73,6.66,18.61l7.18,9.51,6.35,20.16s-.53,18.87.54,20.28,14.81,24.26,14.81,24.26L126,243l13.15,20.7Z" transform="translate(-20.46 -37.41)" style="fill:#2c7130"/><path d="M57.47,94.21c-.28-2-3.15-3.56-5.14-6.2S33.65,77,33.65,77s5.1,20.46,6.26,22,5.79,4.07,8,3.48,6.16-1.9,6.9-3S57.68,95.67,57.47,94.21Z" transform="translate(-20.46 -37.41)" style="fill:#45773c"/><path d="M67.49,112.59s-.58-5.88-2.94-9-5.62-8.38-7.08-9.38L56,93.2l1.21,11.36,6.58,8.71Z" transform="translate(-20.46 -37.41)" style="fill:#30542e"/><path d="M58.07,111.6l-5.48-6.38s-8.65-5.88-9-6.32-4-1.46-4-1.46,7.2,14.55,8.61,16.41,4.2,6,5.6,4.83,4.43-1.54,4.41-3.33S58.07,111.6,58.07,111.6Z" transform="translate(-20.46 -37.41)" style="fill:#294922"/><path d="M66.38,119.63s-.51,4.35-1.61,5.18-4.31,2-5.13,1.88-3.69-5.57-5-8.7-2.83-8.55-3.08-8.88a14.34,14.34,0,0,1-.5-2.72l9.37,5.34L65.57,117Z" transform="translate(-20.46 -37.41)" style="fill:#3e7539"/><path d="M57.24,108.44s2.12,1,2.3-2.43-1.84-6.54-3.1-8.78S51.22,91.78,50,90.82a39.62,39.62,0,0,0-5.14-2.67s2,7.94,2.85,9.23,2.15,7.67,2.15,7.67,3.32,4.14,4.07,3.77A12.86,12.86,0,0,1,57.24,108.44Z" transform="translate(-20.46 -37.41)" style="fill:#337333"/><path d="M386.63,165.64s1.43,8.5,2.5,11.15c1.48,3.68,7.18,11.8,10.62,11.8s10.93-7.53,12.18-11.48c2.57-8.12,3.77-17.08-1-26.2-2.6-5-15.06-9.81-21.19-9.81-7.46,0-18.12,3.13-18.12,4.69S369.47,156,374,160.47C375,161.46,386.63,165.64,386.63,165.64Z" transform="translate(-20.46 -37.41)" style="fill:#778393"/><path d="M345.32,82.84c6.36-5.67-7.21-15.93-16.48-20.39C323.76,60,310.9,63.61,306,67.28c-6,4.47-12.64,13.36-11.7,14.61s4.36,9.44,10.66,10.35c1.4.21.66-6.74,14.81-11.78" transform="translate(-20.46 -37.41)" style="fill:#778393"/><path d="M305.58,178.48c4.59,7.18,16.88-4.59,22.75-13,3.21-4.62,1.7-17.89-1.14-23.32-3.46-6.61-11.18-14.6-12.56-13.88s-10,2.81-11.92,8.89c-.42,1.34,6.56,1.72,9.28,16.49" transform="translate(-20.46 -37.41)" style="fill:#778393"/><path d="M364.45,193.59s8.75,1.87,10.31,0-1.25-10.63,0-11.56,3.12-6.56,3.75-8.13,6.24-4.06,6.24-4.06l5.32,3.13s2.81-4.38,2.81-5.63-1.88-5.93-3.44-5.93-4.69-1.56-5.94-1.56-4.37-1.57-4.84,0-3.59,7.18-7,9.68-11.87,7.26-11.87,7.26l-4.68,7.11Z" transform="translate(-20.46 -37.41)" style="fill:#2c406d"/><path d="M330.37,296a57.91,57.91,0,0,0-4.57-5.81c-1.89-1.73-7.47-4.88-9.48-3.92s-4.28,7.43-3.91,10.08c.77,5.46,2.56,11,7.88,15,2.91,2.18,11.52,1.52,15.09-.18,4.35-2.08,9.7-6.87,9.26-7.78s-1.57-6.54-5.45-7.92C338.33,295.19,330.37,296,330.37,296Z" transform="translate(-20.46 -37.41)" style="fill:#778393"/><path d="M335.52,273.53s-5.62,1.34-6,2.87,3.68,5.84,3.22,6.74,0,4.7.07,5.78-2.51,4.11-2.51,4.11l-4-.34s-.42,3.33-.07,4.06,2.75,2.94,3.66,2.51,3.16-.4,3.89-.75,3-.3,2.83-1.35a16.45,16.45,0,0,1,1.4-7.6c1.31-2.42,4.9-7.54,4.9-7.54l.75-5.46Z" transform="translate(-20.46 -37.41)" style="fill:#2c406d"/><path d="M371.34,226.86s-.4,7.93,0,10.5c.52,3.57,3.57,11.83,6.29,12.38s10-5.1,11.73-8.49c3.5-7,6.06-14.89,3.94-23.91-1.17-4.94-10.17-11.27-15-12.24-5.92-1.18-14.92,0-15.21,1.39s-3.55,8.89-.79,13.69C362.85,221.23,371.34,226.86,371.34,226.86Z" transform="translate(-20.46 -37.41)" style="fill:#778393"/><path d="M359,239.85c1.16-.66,3.66-5.46,4.44-6.78s5.68-2.7,5.68-2.7l3.65,3.67s3-3.52,3.24-4.65-.42-5.68-1.65-5.93-3.44-2.15-4.43-2.35-3.18-2.1-3.83-.76-4.15,6-7.32,7.67-6.41,1.36-7,3.19C350.88,233.89,357.81,240.5,359,239.85Z" transform="translate(-20.46 -37.41)" style="fill:#2c406d"/><path d="M126,194.78s-3.42,20.05,9,28.3,24.17,24.17,29.48,28.3,24.17,23,34.19,23,28.89,2.41,33.61,3.86,45.4.32,49.52,0,20.05-13.29,20.64-15.65-11.21-37.73-37.15-56S206.3,149.38,185.07,150s-36.37-1.78-40,0S126,194.78,126,194.78Z" transform="translate(-20.46 -37.41)" style="fill:#512d14"/><path d="M346,276.28c-10.68,3.65-26.71,2.48-44.72-6.21s-44.09-23.6-47.2-24.85-34.16-28.57-40.37-30.43S185.11,185,177,180s-28.57-14.91-29.19-22.36-23.61-43.47-21.74-55.9.82-11.55,4.33-14.73c4.31-3.9,3.7-5.3,9.61-8.78,10.56-6.21,6-4.65,11.52-9.4,8-6.88,21.74-7.46,29.19-7.46s11.8-6.83,23-6.21,14.48-5.05,24.94,0,33.44,15.57,43.38,25.51,31.06,34.16,32.3,37.88,8.07,43.77,14.28,67.22,19.88,50.17,21.74,57,13.66,24.22,13,26.71S348.36,275.46,346,276.28Z" transform="translate(-20.46 -37.41)" style="fill:#704d1e"/><path d="M124.57,210a13.6,13.6,0,0,0,4.16,8.87c2.08,2.1,12.61,13.86,17.37,19.77,4.47,5.55,9,20.87,19.87,21.83s12.24,10.21,18.59,11.8,8.62,1.51,17.69,4.42S213.59,280,220.4,281s15.73,2.78,18.9.58,6-1.54,12.85-11.58,10-24.67,9.52-26.68-43.09-48.86-53.07-53.17-30.84-22-40.36-23.43-17.5-14.47-22.14-8.91-7.35,7.95-7.35,19.43S124.57,210,124.57,210Z" transform="translate(-20.46 -37.41)" style="fill:#efe88f"/><path d="M260.69,269c-1.62.47-5.1,2.37-5,4.53s-.23,5.5,1.6,5.42,6.47.24,8.2,0,2.1-3.73,1.91-4.93-.8-4.52-2.5-5A12.67,12.67,0,0,0,260.69,269Z" transform="translate(-20.46 -37.41)" style="fill:#efe88f"/><path d="M159.43,165.64c-1.69-6.38-.52-11.92,3.33-16.08s6.22-24.53,5-30.69-7.13-8.7-13.07-12.48-32-3.58-32.32-9c-.18-3.56,19.25-28.1,23.41-28.7s14.89-9.51,16.95-9.51,17.51,1.79,25.83,0,26.74-11.88,37.44-9.5,30.9,14.85,37.44,22.58,22.54,17.57,31.16,30.2c2.64,3.88,14.95,20.9,17.74,29.82s11.71,25.81,9.93,32.51A20.13,20.13,0,0,1,316,175s-.32-4.39-6.81.17c-8,5.59-12.45,7.88-12.45,13.42s-.59,4.84-4.75,9-7.72,4.79-7.13,14.9,12.48,9.85,4.16,20.38-6.54,7.93-12.48,10.12.59,8.43-11.29,6.5-18.82-8.42-24.95-14c-9.23-8.45-21.4-14.66-29.72-23s-23.18-17.23-27.34-18.12-12.58-7.19-15.27-12.48S160.51,169.73,159.43,165.64Z" transform="translate(-20.46 -37.41)" style="fill:#e6da6a"/><path d="M302.91,216.65c-1,0-3.32.18-3.46,2.29s-.7,7.57,1.89,7.82,9.29,1,8.87-1.49-1.08-5.79-3.58-7.51A6.54,6.54,0,0,0,302.91,216.65Z" transform="translate(-20.46 -37.41)" style="fill:#efe88f"/><path d="M177,89.73s14.3-3.1,21.14-1.58,17,5,29.66,18.24c8.25,8.59,23.17,19.34,25,30.53s-2.49,18.51-2.49,18.51-18,12-22.38-12.45c-3.1-17.34-14.6-27.3-19.27-34.14s-23.62-9.86-28-11.4S177,89.73,177,89.73Z" transform="translate(-20.46 -37.41)" style="fill:#e6db94"/><path d="M165.74,155.43c-3.89,3.93.18,18.13,5.74,21.36s22.15,17.18,33.4,23.6,31.94,27.15,40.48,32.53,16.08,12.12,19.51,10.77,8.41-5.9,2.55-7.22-24.31-15.95-33.75-23.93-43.33-24.84-47.76-35.75-8.39-21.36-14.28-21.36S166.78,154.38,165.74,155.43Z" transform="translate(-20.46 -37.41)" style="fill:#e1ce36"/><path d="M182.47,92.25s1.4-.17,3.31-.49a47.71,47.71,0,0,0,8.36-2c4-1.58,12,2.68,14.69,4.63s7.78,6,8.33,8.88-1.56,4.94-2,3.15-2.8-8.12-6.94-9-6.81-5.4-11.55-5.19a64.94,64.94,0,0,0-11.55,2.11Z" transform="translate(-20.46 -37.41)" style="fill:#e2dfd0"/><path d="M239.72,89.73s15.9,20.25,18.61,26.82,2.72,15.81,14.13,22.32S291.92,159,299.3,155.43s6.46-6.71,3.12-12.45-7.15-13.48-20.73-29.71S257.79,79.14,248.55,77,222.35,57.93,214,59s-12.7-1.78-11.07,2.64,8.39,11.48,14.24,11.48S239.72,89.73,239.72,89.73Z" transform="translate(-20.46 -37.41)" style="fill:#dfce60"/><path d="M134.47,95.15s-11.8,1.17-11.8,7.66-7.07,15.92-7.66,22.4-5.9,12.38-5.9,14.15S105,142.31,104.4,147s5.3,5.89,0,8.25-15.33,4.13-15.33,11.2,4.72,30.09,4.72,33.91,0,13.26,4.71,10.31-2.36-2.95,4.72-2.95,17.1,11.2,24.17,8.25,16.51-2.35,17.69-7.07,0-25.94,0-25.94,2.36-26,4.12-27.17,13.56-4.08,15.33-5.26,8.85-12.38,9.44-15.32,1.17-13.56,0-17.69-8.85-15.92-8.85-15.92-13-4.72-17.09-6.48S134.47,95.15,134.47,95.15Z" transform="translate(-20.46 -37.41)" style="fill:#c0973a"/><path d="M107.24,171.36c-2.16,0-9.28,5-8.92,5.39s1.83-.51,5.45,8.08,14.66,12.27,14.66,3.76,2.33-18.39,0-17.23S107.24,171.36,107.24,171.36Z" transform="translate(-20.46 -37.41)" style="fill:#674e1d"/><path d="M126,179.74c-2.79,2.17-2.81,11.17-3.6,13.68s-1.39,14.46,1.8,18.52a16.72,16.72,0,0,0,3.55,3.54c1.53,1,3.32-.18,4.58-.42,1-.2-.32,2.66.39,5.28.29,1.08,1.72,1.14,3.52-.1,1.06-.73.83-2.9.39-4.5-1.07-3.91,5.74-2.15,6.56-2.2a1.94,1.94,0,0,0,1.77-1.39c1.65-5.38,2.69-9.72,2.27-16.55s1.29-14.34-7.84-15.86-9-3-11.19-1.52S126.53,179.33,126,179.74Z" transform="translate(-20.46 -37.41)" style="fill:#e6db94"/></svg>