<svg xmlns="http://www.w3.org/2000/svg" xmlns:xlink="http://www.w3.org/1999/xlink" viewBox="0 0 525.93 428.6"><defs><clipPath id="a" transform="translate(-141.5 -125.57)"><path d="M214.41,468c-15.2-12.35-42.32-45.38-49.46-60.76-8.53-18.37-8.53-29.19-8.53-58,0-14.41,29.18-103.13,49.51-123.41,24.79-24.74,21.46-19.7,55.11-41.57,29.43-19.12,12.72-10.55,76.31-35.79S482.9,143.67,514,160.29s64.42,29.15,80.54,61C617.12,265.78,644,357,644,357s2.52,40.17-28.26,86.94c-28.31,43-41,60.76-117.29,79.13s-144.13,14.13-186.53,0S236.14,485.65,214.41,468Z" style="fill:#dfdfc0"/></clipPath><clipPath id="b" transform="translate(-141.5 -125.57)"><path d="M465.77,248.91s-1.8-19.83,0-27-.6-19.83,3.6-24.63,2.41-10.81,12-11.41,19.22-6.1,23.42-4.85,15.62,6,15.62,9,3,13.12,3,18.57-4.81,19.27-4.81,30.69-4.8,23.53-8.41,26.48,11.41,4.75-8.41,4.75-6,7.21-19.82,0-13.82-4.2-13.82-7.21S465.77,248.91,465.77,248.91Z" style="fill:#341e15"/></clipPath><clipPath id="c" transform="translate(-141.5 -125.57)"><path d="M328.11,199.54a67.71,67.71,0,0,0-3.41-11.83c-2.24-5.42-6.32-7.08-6.32-11v-8.47c0-2.73-3.63-5,0-6.81s12-9.65,13.26-10.27,14-3.34,14-3.34,17.57,13.61,17.84,15S369.34,177,369.34,177s-13.7,20-9.41,20.13h0s-14.89,6.32-16.87,5.72S328.11,199.54,328.11,199.54Z" style="fill:#684638"/></clipPath><clipPath id="d" transform="translate(-141.5 -125.57)"><path d="M459.76,250.11l-25.22-53.46s2.72-5.82-7.81-8.41-18.48,5.17-18.48,5.17-7.95,5-8.55,12.25-4.61,8.2,3,18,35.44,37.24,35.44,37.24Z" style="fill:#8a6423"/></clipPath><clipPath id="e" transform="translate(-141.5 -125.57)"><path d="M330.69,316.37c-8.67.31-21.27-3.57-31.88-13.7S277.09,287.23,282.4,280,295,263.1,317.63,266.48s35.23,4.82,40.54,14.47,8.68,17.38,0,24.13S338.11,316.11,330.69,316.37Z" style="fill:#c96819"/></clipPath><clipPath id="f" transform="translate(-141.5 -125.57)"><path d="M336.55,331.16c-8.67.31-21.27-3.56-31.89-13.7S283,302,288.25,294.78s12.55-16.89,35.23-13.51,35.23,4.82,40.54,14.47,8.69,17.38,0,24.13S344,330.9,336.55,331.16Z" style="fill:#c96819"/></clipPath><clipPath id="g" transform="translate(-141.5 -125.57)"><path d="M384,327s6.39,11.41,24.26,9.61,31.69-7.21,33.49-9.61,2.75-7,2.75-7l-3.35-17-26.9-14L384,302.37Z" style="fill:#ca6819"/></clipPath><clipPath id="h" transform="translate(-141.5 -125.57)"><path d="M338.89,244.92s-22.33-.46-28.23-5-14.52-12.71-14.52-17.7-2.27-17.88-1.81-19.38,10-10.57,16.33-10.57h17.45l22,10.57s5,11.21,5,13.48a53.28,53.28,0,0,1-2.73,17.17C349.74,241.27,338.89,244.92,338.89,244.92Z" style="fill:#c96819"/></clipPath></defs><title>02 Borders</title><path d="M214.41,468c-15.2-12.35-42.32-45.38-49.46-60.76-8.53-18.37-8.53-29.19-8.53-58,0-14.41,29.18-103.13,49.51-123.41,24.79-24.74,21.46-19.7,55.11-41.57,29.43-19.12,12.72-10.55,76.31-35.79S482.9,143.67,514,160.29s64.42,29.15,80.54,61C617.12,265.78,644,357,644,357s2.52,40.17-28.26,86.94c-28.31,43-41,60.76-117.29,79.13s-144.13,14.13-186.53,0S236.14,485.65,214.41,468Z" transform="translate(-141.5 -125.57)" style="fill:#dfdfc0"/><g style="clip-path:url(#a)"><path d="M205.93,225.81s-35.94,57.41,4.92,99.11C248.64,363.49,362,400.49,458,386.2s138.88-59.35,147-95.3c6.37-28-10.51-69.66-10.51-69.66L667.43,365l-64.34,135L424.28,554.17,206.86,529.66,147.63,449l-6.13-115.4Z" transform="translate(-141.5 -125.57)" style="fill:#a29991"/></g><path d="M401.22,184.47s5.22-16.61,21-18.51,46,10.42,46,10.42l13.86,38.12s-3.09,13.34-2.92,16.42-37.45,40.15-37.45,40.15l-39.66.16-20.51-24.38-2.25-43.39Z" transform="translate(-141.5 -125.57)" style="fill:#321d14"/><path d="M391.08,299.22l-13.16-10.29L371.67,282V272s-6.24-3.14,0-6.23,15.05-4.86,15.05-4.86h15.6l9.77,8.61,8.7,17.57s-1.67,6.31-1.41,6.54S400.91,301,400.91,301l-9.83-1.78" transform="translate(-141.5 -125.57)" style="fill:#8b6523"/><path d="M286.88,237.43c-3.78-.25-15.11-1.42-15.11-1.42s-10.87-5.22-11.07-8.74c-.17-3.08,8.8-8.67,8.8-8.67s5.17-4.16,11.53-4.16,5.22-1.1,11.46-1.4,14.85,2,14.85,2l2.75,7.38s4.29,7.79,2.14,9.86c-1.63,1.57-9.54,4.93-11.79,5.18A99,99,0,0,1,286.88,237.43Z" transform="translate(-141.5 -125.57)" style="fill:#ae945a"/><path d="M304.13,239.42s-5.81-.29-9.86,2.27S280.35,246.8,281,251.9s2.37,15.64,5.74,17.6,30.67.14,35.49-2.34,5.85-15.26,5.85-15.26-7-14.1-7.29-14.23S304.13,239.42,304.13,239.42Z" transform="translate(-141.5 -125.57)" style="fill:#684638"/><path d="M354.59,236.83s-6.69-.41-11.34,3.24-16,7.29-15.23,14.59,2.73,22.32,6.6,25.12,35.28.2,40.82-3.34,6.73-21.78,6.73-21.78-8-20.14-8.38-20.33S354.59,236.83,354.59,236.83Z" transform="translate(-141.5 -125.57)" style="fill:#3b302c"/><path d="M363.49,270.33s-26.16-22.53-27.58-22.61-10.56-2.41-13.65-2.8-10.08.76-9.43,4.16,4.09,23.18,3.94,22.93,39.26,3.76,41.11,1.72S363.49,270.33,363.49,270.33Z" transform="translate(-141.5 -125.57)" style="fill:#9b4716"/><path d="M384.17,147.81l-9.07-8.1,4.53-8.13,13.82-6h14.13l3.37,8.17,7.53,6,2.31,8.1v12.7s-5.53,6.81-6.55,5.67S384,153.36,384,153.36Z" transform="translate(-141.5 -125.57)" style="fill:#684638"/><path d="M465.77,248.91s-1.8-19.83,0-27-.6-19.83,3.6-24.63,2.41-10.81,12-11.41,19.22-6.1,23.42-4.85,15.62,6,15.62,9,3,13.12,3,18.57-4.81,19.27-4.81,30.69-4.8,23.53-8.41,26.48,11.41,4.75-8.41,4.75-6,7.21-19.82,0-13.82-4.2-13.82-7.21S465.77,248.91,465.77,248.91Z" transform="translate(-141.5 -125.57)" style="fill:#341e15"/><g style="clip-path:url(#b)"><path d="M465,192.28s13.14-.46,17.68,0,12.89,10.57,12.89,10.57-1.58,18.56-1.34,21.46,1.12,17.14,0,23.41-11.55,29-11.55,29-9.44-10.43-14.48-13.41-15-60.47-15-60.47Z" transform="translate(-141.5 -125.57)" style="fill:#352718"/><path d="M468.13,176.7s27.68-2.57,30.4-2.57,30,9.07,30,9.07L520.43,190s-1.48,8.59-8.74,10-16.15,2.86-16.15,2.86L472.3,192.1h0Z" transform="translate(-141.5 -125.57)" style="fill:#402719"/></g><path d="M328.11,199.54a67.71,67.71,0,0,0-3.41-11.83c-2.24-5.42-6.32-7.08-6.32-11v-8.47c0-2.73-3.63-5,0-6.81s12-9.65,13.26-10.27,14-3.34,14-3.34,17.57,13.61,17.84,15S369.34,177,369.34,177s-13.7,20-9.41,20.13h0s-14.89,6.32-16.87,5.72S328.11,199.54,328.11,199.54Z" transform="translate(-141.5 -125.57)" style="fill:#684638"/><g style="clip-path:url(#c)"><path d="M328.11,151.15s-.24,7.55,0,8.91,6.61,11.8,6.61,13.16,14.52,19.06,14.52,19.06l-10,16.33-20.42-5.72-.45-26.19-5.74-21.63Z" transform="translate(-141.5 -125.57)" style="fill:#3b302c"/></g><path d="M363.49,176.7s-6.17.15,0-13.92S377,141.45,384,141.45s12.55-5.55,17,3.18a89.28,89.28,0,0,1,6.61,19.2L363.49,176.7" transform="translate(-141.5 -125.57)" style="fill:#ca6819"/><path d="M420.79,160.51c8.15,8.66,28.13,20.92,39,25,3.68,1.37,15.53,2.24,15.53,2.24l1.91-6.9A165.51,165.51,0,0,0,465,162.33c-8.14-10.8-13.65-11.49-22.25-14.52s-18.3-5.22-21.93,0C416.93,153.36,418.61,158.2,420.79,160.51Z" transform="translate(-141.5 -125.57)" style="fill:#ca6819"/><path d="M420.79,147.81l-6.55,10.4s7.15,15.19,9,17.14,21.29,12.36,21.29,12.36l17.28,4.57,10.53-.18,3-4.39a97.65,97.65,0,0,1-15.53-2.24c-7.51-1.81-19.49-10.12-19.49-10.12l-19.48-14.84Z" transform="translate(-141.5 -125.57)" style="fill:#9b4716"/><path d="M459.76,250.11l-25.22-53.46s2.72-5.82-7.81-8.41-18.48,5.17-18.48,5.17-7.95,5-8.55,12.25-4.61,8.2,3,18,35.44,37.24,35.44,37.24Z" transform="translate(-141.5 -125.57)" style="fill:#8a6423"/><g style="clip-path:url(#d)"><path d="M428.94,181s-12.43,0-11.82,16.86-7.07,10.79,3.67,29.42,33,33.65,33,33.65l-21,8.41-52.26-49.86,6.61-28.23Z" transform="translate(-141.5 -125.57)" style="fill:#ae945a"/></g><path d="M331.64,323.76" transform="translate(-141.5 -125.57)" style="fill:#a29991"/><path d="M312.64,316.39" transform="translate(-141.5 -125.57)" style="fill:#a29991"/><path d="M330.69,316.37c-8.67.31-21.27-3.57-31.88-13.7S277.09,287.23,282.4,280,295,263.1,317.63,266.48s35.23,4.82,40.54,14.47,8.68,17.38,0,24.13S338.11,316.11,330.69,316.37Z" transform="translate(-141.5 -125.57)" style="fill:#c96819"/><g style="clip-path:url(#e)"><path d="M281,292.54s3.78-10.14,9.57-11.59,6.91-6,19.26-5.76c28.84.45,40.93,8.86,49.87,8.68s2.81-10.51,2.81-10.51l-12.85-7.58-66-3.19L272.33,276.1Z" transform="translate(-141.5 -125.57)" style="fill:#e0b68f"/></g><path d="M336.55,331.16c-8.67.31-21.27-3.56-31.89-13.7S283,302,288.25,294.78s12.55-16.89,35.23-13.51,35.23,4.82,40.54,14.47,8.69,17.38,0,24.13S344,330.9,336.55,331.16Z" transform="translate(-141.5 -125.57)" style="fill:#c96819"/><g style="clip-path:url(#f)"><path d="M286.88,307.33s3.79-10.14,9.58-11.59,6.9-6,19.26-5.76c28.84.46,40.93,8.86,49.87,8.68s2.81-10.51,2.81-10.51l-12.86-7.58-66-3.19-11.37,13.51Z" transform="translate(-141.5 -125.57)" style="fill:#e0b68f"/></g><path d="M366.9,203.21s4.68-10.93,15-10.93,29,10.93,29,10.93l6,27.22s-3.05,8.86-3.18,11-27.41,24.37-27.41,24.37l-25.72-3.17-11.38-18.37,1.94-29.86Z" transform="translate(-141.5 -125.57)" style="fill:#321d14"/><path d="M405.4,153.36l15.39,12.77s0,12.35-4.59,19.52c-3.12,4.86-17.85,15.33-20.1,17.2-4.42,3.68-3,5.76-12.11,5.76s-22.62-7.53-22.62-7.53Z" transform="translate(-141.5 -125.57)" style="fill:#ca6819"/><path d="M380,200s-20.09,8-20.09-2.87-2.41-22.39,9.41-32.15,13-14.36,25-13.78,15.5,2.87,13.2,12.63.58,17.22-10.33,26.41S380,200,380,200Z" transform="translate(-141.5 -125.57)" style="fill:#e0b68f"/><path d="M384,327s6.39,11.41,24.26,9.61,31.69-7.21,33.49-9.61,2.75-7,2.75-7l-3.35-17-26.9-14L384,302.37Z" transform="translate(-141.5 -125.57)" style="fill:#ca6819"/><g style="clip-path:url(#g)"><path d="M376.27,300.57s-.48,18.37,17.18,19.4,37.63,2.63,41.46-3.58A73.69,73.69,0,0,0,441.14,303l-7.81-22.4-28.11-3.84Z" transform="translate(-141.5 -125.57)" style="fill:#e0b68f"/><path d="M343.23,233.5c-3-10.42-13-23.84-11.59-30.65S329.42,181,335.42,181s9.61-3.65,15,0,10.93,20.09,10.93,20.09l8,10.58,5.13,21.84" transform="translate(-141.5 -125.57)" style="fill:#8b6523"/><path d="M366.06,248.31s-18-5.6-22.83-14.81-6.61-14.72-6.61-24.89-4.8-26.83-1.8-27.8,8.41-5.27,15,.18,21.4,10,25.12,20.65,7.32,32.85,6.11,36.45S366.06,248.31,366.06,248.31Z" transform="translate(-141.5 -125.57)" style="fill:#ae945a"/></g><path d="M338.89,244.92s-22.33-.46-28.23-5-14.52-12.71-14.52-17.7-2.27-17.88-1.81-19.38,10-10.57,16.33-10.57h17.45l22,10.57s5,11.21,5,13.48a53.28,53.28,0,0,1-2.73,17.17C349.74,241.27,338.89,244.92,338.89,244.92Z" transform="translate(-141.5 -125.57)" style="fill:#c96819"/><g style="clip-path:url(#h)"><path d="M299.46,197.65s.31,11.87,1.67,18.22,8.63,17.25,16.34,20.42,21.42,8.63,21.42,8.63l-20.06,2.8-20.42-2.8s-4.66-13.62-4.14-15.89-7.39-22.23-7.39-22.23l7.39-8.62,5.19-.53" transform="translate(-141.5 -125.57)" style="fill:#e0b68f"/></g><path d="M403.73,264.85l-3.5-16.54s.64-10.18,1.75-10.18h7.15c2.87,0,3.18-3.81,7.95-3.81S430.76,241,438.71,241a33,33,0,0,1,14,3.18s7.95,9.54,12.72,9.54,16.54.63,17.5.63,2.86,4.77,7.63,8.59,7,11.13,7,11.13l4.78,26.08s-18.13,17.9-28.31,17.06-7.63,5.52-19.08,3-7.63-8.9-20.67-19.08S413.59,282.94,412,277.55,403.73,264.85,403.73,264.85Z" transform="translate(-141.5 -125.57)" style="fill:#684638"/><path d="M337.2,180.81s-5.42,12.19-5.42,18.79.7,19.08,2.71,25.68,6.66,14.37,11.16,17.91,8,5.89,8,5.89l6-1.74-7.58-61.42-6.5-6.82-3.07-2.1Z" transform="translate(-141.5 -125.57)" style="fill:#ae945a"/><path d="M348,181s-4.81-9.66-7.81,0,0,41.49,0,41.49,9.61,24.62,16.82,25.23,19.82-13.75,19.82-23.4S348,181,348,181Z" transform="translate(-141.5 -125.57)" style="fill:#8b6523"/></svg>