<svg xmlns="http://www.w3.org/2000/svg" xmlns:xlink="http://www.w3.org/1999/xlink" viewBox="0 0 418.67 200.27"><defs><clipPath id="a" transform="translate(-97.14 -178.3)"><path d="M161,306.4,142.8,291.24s-.76-4.55-7.58-11.37-19-14.4-19-14.4l-9.86-12.13-6.06-9.09s9.85,6.06,15.92,0,23.5-28.81,29.56-28.81,8.34,2.28,11.37,0,21.22,0,21.22,0-3-13.64,0-13.64,3,6.82,15.16,6.82,23.5.76,38.66.76,31.84-3.79,58.37-7.58,85.65-9.86,89.44-9.86,42.45-3.24,48.51-4.65,54.58.11,54.58.11l9.09-.71Z" style="fill:#754812"/></clipPath></defs><title>03chocolate</title><path d="M150.38,378.57V342.19c0-4.55,1.51-3,0-11.37s1.51-8.34,0-13.65.64-9.85-.44-12.88-1.08-4.55,27.73-15.92,63.67-15.92,86.41-29.56,69-35.63,94-40.18,66.7-24.25,81.1-25,34.87-6.82,44-6.82,15.16-1.52,22,6.82,11.37,26.53,10.61,37.14-3.79,16.68-3.79,16.68-77.32,18.95-86.41,23.49a79.92,79.92,0,0,0-16.68,11.7s-9.85-1.95-12.88,0-6.83,5.74-9.86,6.5-11.37,5.3-11.37,5.3-11.37,5.31-15.91,5.31H349l-16.25,16.67-10.28-.75-30.32,9.85L283,327.78l-21.23,3.79-1.51,7.58s-7.58,3-7.58,6.07,6.06.76,0,3-7.58,9.85-10.62,9.85-17.43-.76-17.43-.76L208,356.59l-6.07,15.16-17.43,3.79-7.58,2.27L160.23,368Z" transform="translate(-97.14 -178.3)" style="fill:#341911"/><path d="M325.39,264.79c4-4.24,19.14-7.15,29.22-11.18s23.18-10.08,40.32-15.12,18.09-10.72,30.32-12.76,9.38-3.67,26.9-4.89,11.42-2,22.42-2.86a161.12,161.12,0,0,1,21.2,0c.81,0,1.08,5.71-3.54,6.12s-14.8,1.63-22.14,1.63-36.28,8.56-41.17,9-13.45,3.26-22.42,9-6.93,6.12-24.45,13-18.35,6.93-29.35,9.78-17.12,9.29-22.83,9C327.8,275.34,323,267.35,325.39,264.79Z" transform="translate(-97.14 -178.3)" style="fill:#302624"/><path d="M129.15,363.49a23.15,23.15,0,0,1-8.33,0c-4.55-.84-8.34-5.39-10.62-8.42s-10.61,2.27-9.85-10.61-7.58-7.58,0-17.43,10.44,0,12.8-13.65-5.22-26.53-5.22-34.11V265.63c0-3-7.58-21.38-7.58-21.38l64.43,44.88L161,306.4,160.23,368l-9.85,10.53Z" transform="translate(-97.14 -178.3)" style="fill:#060708"/><path d="M161,306.4,142.8,291.24s-.76-4.55-7.58-11.37-19-14.4-19-14.4l-9.86-12.13-6.06-9.09s9.85,6.06,15.92,0,23.5-28.81,29.56-28.81,8.34,2.28,11.37,0,21.22,0,21.22,0-3-13.64,0-13.64,3,6.82,15.16,6.82,23.5.76,38.66.76,31.84-3.79,58.37-7.58,85.65-9.86,89.44-9.86,42.45-3.24,48.51-4.65,54.58.11,54.58.11l9.09-.71Z" transform="translate(-97.14 -178.3)" style="fill:#754812"/><g style="clip-path:url(#a)"><path d="M230.05,281.44S208,267.53,208,265.36s.75-37,3.79-37S229.21,220,229.21,220l28-25s138-16.68,140.23-16.68,37.82,8.49,37.82,8.49.84,26.75.08,29.22-62.15,30.54-62.15,30.54L258.77,294.27l-28.72-12.83" transform="translate(-97.14 -178.3)" style="fill:#652d12"/></g></svg>